<?xml version="1.0" encoding="utf-8"?>
<!-- Generator: Adobe Illustrator 24.0.1, SVG Export Plug-In . SVG Version: 6.00 Build 0)  -->
<svg version="1.1" id="图层_1" xmlns="http://www.w3.org/2000/svg" xmlns:xlink="http://www.w3.org/1999/xlink" x="0px" y="0px"
	 viewBox="0 0 1279.47 841.89" style="enable-background:new 0 0 1279.47 841.89;" xml:space="preserve">
<style type="text/css">
	.st0{fill:#101A3A;}
	.st1{fill:#72C7D5;}
	.st2{fill:#FFFFFF;}
	.st3{fill:#231815;}
</style>
<g>
	<polygon class="st0" points="313.8,266.4 46.04,266.4 46.04,486.45 94.42,546.1 362.19,546.1 362.19,324.73 	"/>
	<g>
		<path class="st1" d="M100.05,323.24l39.44,47.39l-33.47,8.95l-15.58-4.97c0,0-1.33-30.16,0-32.48
			C91.77,339.81,100.05,323.24,100.05,323.24z"/>
		<polygon class="st1" points="304.53,288.77 339.98,329.86 339.98,364.66 304.53,323.24 		"/>
		<polygon class="st1" points="339.98,524.39 304.53,482.64 304.53,370.63 339.98,412.38 		"/>
		<rect x="68.24" y="288.77" class="st2" width="236.28" height="34.47"/>
		<rect x="68.24" y="370.63" class="st2" width="236.28" height="34.47"/>
		<rect x="68.24" y="448.17" class="st2" width="236.28" height="34.47"/>
		<rect x="272.71" y="370.63" class="st2" width="31.81" height="109.36"/>
	</g>
	<rect x="68.24" y="288.77" class="st2" width="31.81" height="116.32"/>
</g>
<path class="st3" d="M459.47,444.49c0,7.21,2.45,12.79,7.34,16.72c4.89,3.93,10.7,5.89,17.44,5.89c3.2,0,6.09-0.48,8.66-1.44
	c2.56-0.96,5.05-2.57,7.46-4.81c4.65-4.33,6.97-9.7,6.97-16.12c0-8.66-2.8-15.03-8.41-19.12c-5.62-4.09-11.79-7.25-18.52-9.5
	l-2.17-0.72l-1.92-0.72c-0.8-0.16-1.28-0.32-1.44-0.48l-1.2-0.48c-4.81-1.44-9.62-3.33-14.43-5.65c-4.82-2.32-9.38-5.57-13.71-9.74
	c-3.37-3.53-6.42-7.94-9.14-13.23c-2.09-4.65-3.61-9.78-4.57-15.39l-0.24-2.65v-2.89c0-14.59,5.2-26.66,15.63-36.2
	s22.69-14.31,36.8-14.31c13.79,0,25.89,4.85,36.32,14.55c10.43,9.71,15.63,21.69,15.63,35.96l-33.91-0.24
	c0-5.29-2.01-9.66-6.01-13.11c-4.01-3.45-8.66-5.17-13.95-5.17c-5.13,0-9.34,1.77-12.63,5.3c-3.29,3.52-4.93,7.86-4.93,12.99v0.24
	v0.24c0,5.62,1.92,10.02,5.77,13.22c4,2.89,8.41,5.29,13.22,7.21l1.69,0.72l1.68,0.48l2.4,0.96l2.41,0.72
	c5.29,1.76,10.49,3.77,15.63,6.01c4.81,1.77,9.54,4.65,14.19,8.66c6.09,4.65,10.74,10.47,13.95,17.44
	c3.2,6.98,4.81,14.63,4.81,22.97c0,15.87-5.73,29.18-17.19,39.92c-11.47,10.74-24.98,16.12-40.53,16.12
	c-14.91,0-28.22-5.09-39.92-15.27c-11.71-10.18-17.56-23.13-17.56-38.84L459.47,444.49z"/>
<path class="st3" d="M569.38,361.27h29.35v17.32c5.29-7.21,11.62-12.58,19-16.11c7.37-3.53,15.47-5.29,24.29-5.29
	c9.46,0,18.04,1.65,25.74,4.93c7.7,3.29,15.23,8.87,22.61,16.72c6.09,6.25,10.66,13.71,13.71,22.37c1.6,4.17,2.8,8.41,3.61,12.74
	c0.8,4.33,1.2,9.06,1.2,14.19c0,18.6-6.29,35.04-18.88,49.3c-12.59,14.27-28.58,21.41-47.98,21.41c-8.02,0-15.43-1.44-22.25-4.33
	s-12.79-7.61-17.92-14.19l-0.48,58.69h-31.99V361.27z M610.51,399.99c-7.38,7.86-11.06,17.24-11.06,28.14
	c0,5.62,0.96,10.94,2.89,15.99c1.92,5.05,5.13,9.58,9.62,13.59c2.25,2.09,5.21,4.09,8.9,6.02c1.76,0.64,3.45,1.24,5.05,1.8
	c1.6,0.56,3.28,1.08,5.05,1.56l3.13,0.72h3.37c11.22,0,20.6-3.88,28.14-11.67c7.53-7.77,11.3-17.19,11.3-28.26
	c0-10.59-3.69-19.8-11.06-27.66c-7.38-7.86-16.43-11.79-27.18-11.79C627.59,388.13,618.21,391.98,610.51,399.99z"/>
<path class="st3" d="M857.28,494.52h-29.35v-18.04c-4.17,5.62-9.5,10.26-15.99,13.95c-6.49,3.69-13.43,6.26-20.8,7.7
	c-1.92,0-3.45,0.16-4.57,0.48l-4.33,0.24c-9.94,0-19.16-1.92-27.65-5.77c-8.5-3.85-15.55-9.14-21.17-15.87
	c-5.61-6.73-9.82-14.23-12.62-22.49c-2.81-8.26-4.21-17.11-4.21-26.58c0-9.3,1.28-17.8,3.85-25.49c2.57-7.7,7.1-15.28,13.59-22.73
	c6.5-7.46,13.83-13.11,22.01-16.96s17.23-5.77,27.17-5.77c9.3,0,17.8,2.01,25.5,6.01c7.7,4.01,14.1,9.71,19.24,17.08v-19h29.35
	V494.52z M816.14,399.76c-6.9-7.54-16.11-11.31-27.65-11.31c-11.54,0-21.17,3.85-28.87,11.54c-3.52,3.85-6.25,8.22-8.17,13.11
	c-1.92,4.89-2.89,10.3-2.89,16.24c0,10.74,3.85,19.84,11.54,27.29c7.7,7.46,16.99,11.18,27.9,11.18c11.71,0,21.13-3.81,28.26-11.42
	c7.14-7.61,10.71-17.11,10.71-28.5C826.97,416.83,823.36,407.45,816.14,399.76z"/>
<path class="st3" d="M886.85,361.27h29.1v12.02c3.85-5.29,8.01-9.3,12.51-12.02c4.49-2.72,10.01-4.09,16.6-4.09l2.4-0.24v31.03
	l-3.36,0.48l-3.37,0.48l-6.73,2.17c-2.4,0.8-4.4,1.92-6.02,3.37c-3.69,3.05-6.25,6.81-7.7,11.3c-0.96,4.17-1.44,8.66-1.44,13.47
	v1.92v1.69v71.67h-31.99V361.27z"/>
<path class="st3" d="M963.81,316.78h31.99v107.27l42.81-62.78h37.76l-48.1,65.18l56.04,68.06h-42.81l-45.7-62.29v62.29h-31.99
	V316.78z"/>
<path class="st0" d="M1213.23,378.35c13.47,13.95,20.2,30.63,20.2,50.03c0,19.56-7.01,36.2-21.05,49.91
	c-14.02,13.71-30.75,20.56-50.14,20.56c-19.4,0-36-6.89-49.79-20.68s-20.69-30.38-20.69-49.78c0-19.88,7.01-36.72,21.05-50.51
	c14.04-13.79,30.99-20.68,50.87-20.68C1183.08,357.02,1199.6,364.08,1213.23,378.35z"/>
<path class="st1" d="M1159.36,388.69l-2.89,0.24c-3.7,0.64-7.5,1.96-11.43,3.97c-3.93,2.01-7.34,4.61-10.22,7.82
	c-3.37,3.37-6.18,7.61-8.41,12.74c-1.77,4.81-2.65,9.78-2.65,14.92c0,10.58,3.65,19.8,10.95,27.65
	c7.29,7.86,16.47,11.79,27.54,11.79c11.38,0,20.76-3.81,28.14-11.42c7.37-7.61,11.06-16.96,11.06-28.02
	c0-11.07-3.77-20.49-11.3-28.26c-7.55-7.78-16.84-11.67-27.9-11.67C1161.12,388.13,1160.16,388.21,1159.36,388.69z"/>
</svg>
