<?xml version="1.0" encoding="UTF-8"?>
<svg id="_图层_1" data-name="图层 1" xmlns="http://www.w3.org/2000/svg" viewBox="0 0 178.83 178.5">
  <defs>
    <style>
      .cls-1 {
        fill: #fff;
      }

      .cls-2 {
        fill: #8e47f0;
      }

      .cls-3 {
        fill: #3f3faa;
      }
    </style>
  </defs>
  <circle class="cls-3" cx="98.05" cy="97.72" r="80.78"/>
  <circle class="cls-2" cx="80.78" cy="80.78" r="80.78"/>
  <path class="cls-1" d="M79.53,134.54c-5.74,0-11.28-1.9-15.88-5.48-5.46-4.26-8.93-10.38-9.78-17.25-.26-2.1-.27-4.18-.03-6.22-1.6,.31-3.25,.47-4.93,.47-14.29,0-25.91-11.62-25.91-25.91s11.62-25.91,25.91-25.91c2.04,0,4.03,.24,5.94,.69-.11-.98-.17-1.97-.17-2.96,0-14.29,11.62-25.91,25.91-25.91s25.91,11.62,25.91,25.91c0,.83-.04,1.66-.12,2.48,2.1-.37,4.25-.48,6.42-.31,14.25,1.06,24.98,13.51,23.92,27.76-.51,6.9-3.68,13.19-8.92,17.71-5.24,4.52-11.94,6.73-18.83,6.21-1.25-.09-2.49-.27-3.69-.54,0,.06,.02,.12,.02,.18,.85,6.87-1.03,13.66-5.28,19.11-4.26,5.46-10.38,8.93-17.25,9.78-1.08,.13-2.16,.2-3.24,.2Zm-14.38-34.22c-1.82,3.15-2.54,6.72-2.09,10.35,.55,4.41,2.78,8.35,6.29,11.09,3.51,2.73,7.87,3.94,12.28,3.39,4.41-.55,8.35-2.78,11.09-6.29,2.74-3.51,3.94-7.87,3.39-12.28-.36-2.91-1.47-5.65-3.21-7.97-1.14-1.1-2.19-2.32-3.13-3.64-1.48-2.08-.99-4.97,1.09-6.46,2.08-1.48,4.97-.99,6.46,1.09,.34,.48,.71,.95,1.1,1.39,.31,.22,.6,.48,.86,.78,.16,.18,.31,.37,.46,.56,2.72,2.45,6.19,3.96,9.92,4.23,9.18,.69,17.16-6.22,17.84-15.37,.68-9.16-6.22-17.16-15.37-17.84-3.51-.26-6.93,.57-9.92,2.4-1.42,1.16-3.46,1.42-5.17,.48-2.24-1.23-3.06-4.04-1.83-6.29,1.33-2.43,2.04-5.19,2.04-7.99,0-9.18-7.47-16.65-16.65-16.65s-16.65,7.47-16.65,16.65c0,3.29,.95,6.46,2.76,9.18,.09,.13,.17,.27,.24,.41,4.86,4.71,7.88,11.31,7.88,18.59,0,8.14-3.77,15.42-9.67,20.17Zm-16.24-36.82c-9.18,0-16.65,7.47-16.65,16.65s7.47,16.65,16.65,16.65,16.65-7.47,16.65-16.65-7.47-16.65-16.65-16.65Z"/>
</svg>