<?xml version="1.0" encoding="UTF-8"?>
<!DOCTYPE svg PUBLIC "-//W3C//DTD SVG 1.1//EN" "http://www.w3.org/Graphics/SVG/1.1/DTD/svg11.dtd">
<svg xmlns="http://www.w3.org/2000/svg" version="1.1" width="869px" height="869px" style="shape-rendering:geometricPrecision; text-rendering:geometricPrecision; image-rendering:optimizeQuality; fill-rule:evenodd; clip-rule:evenodd" xmlns:xlink="http://www.w3.org/1999/xlink">
<g><path style="opacity:0.251" fill="#ebebeb" d="M -0.5,-0.5 C 289.167,-0.5 578.833,-0.5 868.5,-0.5C 868.5,289.167 868.5,578.833 868.5,868.5C 578.833,868.5 289.167,868.5 -0.5,868.5C -0.5,578.833 -0.5,289.167 -0.5,-0.5 Z M 1.5,1.5 C 289.833,1.5 578.167,1.5 866.5,1.5C 866.5,289.833 866.5,578.167 866.5,866.5C 578.167,866.5 289.833,866.5 1.5,866.5C 1.5,578.167 1.5,289.833 1.5,1.5 Z M 453.5,545.5 C 438.698,556.709 421.865,562.043 403,561.5C 358.446,561.077 329.446,539.744 316,497.5C 307.796,458.978 315.129,423.644 338,391.5C 355.794,369.752 378.627,356.252 406.5,351C 483.729,338.204 541.229,365.704 579,433.5C 603.833,501.847 595.166,565.514 553,624.5C 538.205,644.295 521.038,661.795 501.5,677C 445.643,708.98 386.31,717.646 323.5,703C 265.5,686.103 219.334,652.936 185,603.5C 130.529,522.659 117.196,435.326 145,341.5C 153.534,309.765 167.868,281.098 188,255.5C 269.232,151.677 374.732,113.177 504.5,140C 584.808,158.995 646.642,203.495 690,273.5C 718.633,324.533 732.467,379.367 731.5,438C 732.064,477.049 726.564,515.216 715,552.5C 704.881,578.649 686.714,586.815 660.5,577C 648.561,568.29 642.561,556.457 642.5,541.5C 647.812,480.413 632.979,424.746 598,374.5C 559.319,326.245 508.819,301.578 446.5,300.5C 404.569,300.146 365.903,310.979 330.5,333C 290.201,364.079 268.035,405.246 264,456.5C 261.434,543.923 303.267,594.423 389.5,608C 440.18,612.409 479.013,593.243 506,550.5C 526.507,509.636 523.507,470.636 497,433.5C 475.371,411.114 448.871,400.447 417.5,401.5C 378.293,403.534 353.459,423.534 343,461.5C 337.51,501.359 352.677,530.193 388.5,548C 410.528,555.959 432.195,555.125 453.5,545.5 Z"/></g>
<g><path style="opacity:0.997" fill="#184031" d="M 407.5,82.5 C 531.821,77.0968 633.321,122.097 712,217.5C 754.984,273.422 779.318,336.755 785,407.5C 785.667,501.167 785.667,594.833 785,688.5C 777.163,736.001 750.329,767.168 704.5,782C 699.552,783.256 694.552,784.256 689.5,785C 595.5,785.667 501.5,785.667 407.5,785C 287.992,772.707 196.159,716.207 132,615.5C 80.0303,524.739 68.697,429.072 98,328.5C 130.645,231.523 192.812,160.356 284.5,115C 323.752,97.1053 364.752,86.2719 407.5,82.5 Z M 453.5,545.5 C 432.195,555.125 410.528,555.959 388.5,548C 352.677,530.193 337.51,501.359 343,461.5C 353.459,423.534 378.293,403.534 417.5,401.5C 448.871,400.447 475.371,411.114 497,433.5C 523.507,470.636 526.507,509.636 506,550.5C 479.013,593.243 440.18,612.409 389.5,608C 303.267,594.423 261.434,543.923 264,456.5C 268.035,405.246 290.201,364.079 330.5,333C 365.903,310.979 404.569,300.146 446.5,300.5C 508.819,301.578 559.319,326.245 598,374.5C 632.979,424.746 647.812,480.413 642.5,541.5C 642.561,556.457 648.561,568.29 660.5,577C 686.714,586.815 704.881,578.649 715,552.5C 726.564,515.216 732.064,477.049 731.5,438C 732.467,379.367 718.633,324.533 690,273.5C 646.642,203.495 584.808,158.995 504.5,140C 374.732,113.177 269.232,151.677 188,255.5C 167.868,281.098 153.534,309.765 145,341.5C 117.196,435.326 130.529,522.659 185,603.5C 219.334,652.936 265.5,686.103 323.5,703C 386.31,717.646 445.643,708.98 501.5,677C 521.038,661.795 538.205,644.295 553,624.5C 595.166,565.514 603.833,501.847 579,433.5C 541.229,365.704 483.729,338.204 406.5,351C 378.627,356.252 355.794,369.752 338,391.5C 315.129,423.644 307.796,458.978 316,497.5C 329.446,539.744 358.446,561.077 403,561.5C 421.865,562.043 438.698,556.709 453.5,545.5 Z"/></g>
</svg>
