<?xml version="1.0" encoding="UTF-8"?>
<!DOCTYPE svg PUBLIC "-//W3C//DTD SVG 1.1//EN" "http://www.w3.org/Graphics/SVG/1.1/DTD/svg11.dtd">
<svg xmlns="http://www.w3.org/2000/svg" version="1.1" width="179px" height="179px" style="shape-rendering:geometricPrecision; text-rendering:geometricPrecision; image-rendering:optimizeQuality; fill-rule:evenodd; clip-rule:evenodd" xmlns:xlink="http://www.w3.org/1999/xlink">
<g><path style="opacity:0.99" fill="#010101" d="M 77.5,-0.5 C 85.1667,-0.5 92.8333,-0.5 100.5,-0.5C 144.17,7.83656 170.17,33.8366 178.5,77.5C 178.5,85.1667 178.5,92.8333 178.5,100.5C 170.163,144.17 144.163,170.17 100.5,178.5C 92.8333,178.5 85.1667,178.5 77.5,178.5C 33.8301,170.163 7.83011,144.163 -0.5,100.5C -0.5,92.8333 -0.5,85.1667 -0.5,77.5C 7.83656,33.8301 33.8366,7.83011 77.5,-0.5 Z"/></g>
<g><path style="opacity:1" fill="#3469f5" d="M 138.5,27.5 C 152.505,27.0031 158.672,33.6698 157,47.5C 154.673,52.4232 150.84,55.5899 145.5,57C 139.843,57.4994 134.176,57.6661 128.5,57.5C 128.334,50.4921 128.5,43.4921 129,36.5C 130.871,32.0064 134.038,29.0064 138.5,27.5 Z"/></g>
<g><path style="opacity:1" fill="#878787" d="M 98.5,33.5 C 105.648,32.5084 112.981,32.175 120.5,32.5C 120.737,33.791 120.404,34.791 119.5,35.5C 112.913,33.5388 105.913,32.8721 98.5,33.5 Z"/></g>
<g><path style="opacity:1" fill="#fcfcfc" d="M 98.5,33.5 C 105.913,32.8721 112.913,33.5388 119.5,35.5C 114.243,46.7617 109.076,58.0951 104,69.5C 101.408,72.7621 98.2413,75.2621 94.5,77C 108.891,74.3361 119.724,79.1695 127,91.5C 128.461,110.098 128.961,128.765 128.5,147.5C 121.167,147.5 113.833,147.5 106.5,147.5C 106.667,127.164 106.5,106.831 106,86.5C 104.961,87.2438 104.461,88.2438 104.5,89.5C 102.484,94.5176 98.8176,97.6842 93.5,99C 79.1705,99.4999 64.8372,99.6666 50.5,99.5C 50.5,115.5 50.5,131.5 50.5,147.5C 43.1667,147.5 35.8333,147.5 28.5,147.5C 28.5,109.167 28.5,70.8333 28.5,32.5C 35.8333,32.5 43.1667,32.5 50.5,32.5C 50.5,47.5 50.5,62.5 50.5,77.5C 59.8571,77.8316 69.1904,77.4983 78.5,76.5C 85.4542,62.2606 92.1208,47.9273 98.5,33.5 Z"/></g>
<g><path style="opacity:1" fill="#8c8c8c" d="M 106.5,147.5 C 105.833,128.167 105.167,108.833 104.5,89.5C 104.461,88.2438 104.961,87.2438 106,86.5C 106.5,106.831 106.667,127.164 106.5,147.5 Z"/></g>
</svg>
