<?xml version="1.0" encoding="UTF-8"?>
<!DOCTYPE svg PUBLIC "-//W3C//DTD SVG 1.1//EN" "http://www.w3.org/Graphics/SVG/1.1/DTD/svg11.dtd">
<svg xmlns="http://www.w3.org/2000/svg" version="1.1" width="450px" height="450px" style="shape-rendering:geometricPrecision; text-rendering:geometricPrecision; image-rendering:optimizeQuality; fill-rule:evenodd; clip-rule:evenodd" xmlns:xlink="http://www.w3.org/1999/xlink">
<g><path style="opacity:0.996" fill="#ec008c" d="M 204.5,-0.5 C 217.833,-0.5 231.167,-0.5 244.5,-0.5C 329.939,10.4579 391.772,54.4579 430,131.5C 440.122,154.997 446.622,179.33 449.5,204.5C 449.5,217.833 449.5,231.167 449.5,244.5C 438.542,329.939 394.542,391.772 317.5,430C 294.003,440.122 269.67,446.622 244.5,449.5C 231.167,449.5 217.833,449.5 204.5,449.5C 119.061,438.542 57.228,394.542 19,317.5C 8.87781,294.003 2.37781,269.67 -0.5,244.5C -0.5,231.167 -0.5,217.833 -0.5,204.5C 10.4579,119.061 54.4579,57.228 131.5,19C 154.997,8.87781 179.33,2.37781 204.5,-0.5 Z"/></g>
<g><path style="opacity:1" fill="#fefefe" d="M 196.5,64.5 C 198.167,64.5 199.833,64.5 201.5,64.5C 206.463,88.2979 220.797,103.131 244.5,109C 251.167,109.667 257.833,109.667 264.5,109C 272.274,107.08 279.607,104.413 286.5,101C 294.491,112.97 299.325,126.137 301,140.5C 301.984,198.545 301.651,256.545 300,314.5C 296.977,322.192 291.477,327.025 283.5,329C 266.503,329.5 249.503,329.667 232.5,329.5C 232.667,350.169 232.5,370.836 232,391.5C 228.586,403.625 220.752,408.125 208.5,405C 203.565,402.632 200.398,398.799 199,393.5C 198.5,372.169 198.333,350.836 198.5,329.5C 181.163,329.667 163.83,329.5 146.5,329C 137.667,326.833 132.167,321.333 130,312.5C 129.333,255.167 129.333,197.833 130,140.5C 136.456,101.223 158.622,75.8894 196.5,64.5 Z"/></g>
</svg>
