<?xml version="1.0" encoding="UTF-8"?>
<!DOCTYPE svg PUBLIC "-//W3C//DTD SVG 1.1//EN" "http://www.w3.org/Graphics/SVG/1.1/DTD/svg11.dtd">
<svg xmlns="http://www.w3.org/2000/svg" version="1.1" width="225px" height="225px" style="shape-rendering:geometricPrecision; text-rendering:geometricPrecision; image-rendering:optimizeQuality; fill-rule:evenodd; clip-rule:evenodd" xmlns:xlink="http://www.w3.org/1999/xlink">
<g><path style="opacity:0.979" fill="#fdfdfe" d="M 98.5,-0.5 C 107.5,-0.5 116.5,-0.5 125.5,-0.5C 180.837,10.1706 213.837,43.1706 224.5,98.5C 224.5,107.5 224.5,116.5 224.5,125.5C 213.829,180.837 180.829,213.837 125.5,224.5C 116.5,224.5 107.5,224.5 98.5,224.5C 43.1627,213.829 10.1627,180.829 -0.5,125.5C -0.5,116.5 -0.5,107.5 -0.5,98.5C 10.1706,43.1627 43.1706,10.1627 98.5,-0.5 Z"/></g>
<g><path style="opacity:1" fill="#0e40f3" d="M 110.5,181.5 C 89.2774,189.272 67.9441,189.438 46.5,182C 42.7802,180.14 39.1136,178.307 35.5,176.5C 14.8681,160.125 6.70143,138.792 11,112.5C 21.0388,77.1262 42.2055,50.6262 74.5,33C 101.999,17.1909 130.666,14.5243 160.5,25C 187.096,38.6847 198.596,60.518 195,90.5C 187.067,124.541 168.233,150.707 138.5,169C 129.766,174.534 120.433,178.701 110.5,181.5 Z"/></g>
<g><path style="opacity:1" fill="#fafafe" d="M 172.5,70.5 C 172.631,71.3764 172.298,72.0431 171.5,72.5C 134.758,56.0565 97.758,55.3899 60.5,70.5C 82.9041,48.1973 109.904,38.6973 141.5,42C 157.848,45.1417 168.181,54.6417 172.5,70.5 Z"/></g>
<g><path style="opacity:1" fill="#3763fe" d="M 172.5,70.5 C 173.914,79.9487 173.248,89.2821 170.5,98.5C 170.586,97.5041 170.252,96.6708 169.5,96C 147.742,83.8159 124.408,79.1492 99.5,82C 82.5878,84.1286 67.2545,90.1286 53.5,100C 42.9057,108.361 36.9057,119.194 35.5,132.5C 36.2195,137.991 37.5529,143.324 39.5,148.5C 35.9184,144.633 33.7517,139.966 33,134.5C 30.913,118.094 34.5797,103.094 44,89.5C 49.0435,82.6334 54.5435,76.3 60.5,70.5C 97.758,55.3899 134.758,56.0565 171.5,72.5C 172.298,72.0431 172.631,71.3764 172.5,70.5 Z"/></g>
<g><path style="opacity:1" fill="#fdfdfe" d="M 170.5,98.5 C 154.242,135.977 125.908,158.144 85.5,165C 71.4417,167.233 58.4417,164.567 46.5,157C 43.7895,154.372 41.4562,151.539 39.5,148.5C 37.5529,143.324 36.2195,137.991 35.5,132.5C 36.9057,119.194 42.9057,108.361 53.5,100C 67.2545,90.1286 82.5878,84.1286 99.5,82C 124.408,79.1492 147.742,83.8159 169.5,96C 170.252,96.6708 170.586,97.5041 170.5,98.5 Z"/></g>
<g><path style="opacity:1" fill="#3763ff" d="M 35.5,176.5 C 39.1136,178.307 42.7802,180.14 46.5,182C 67.9441,189.438 89.2774,189.272 110.5,181.5C 134.07,183.355 155.737,177.521 175.5,164C 189.271,153.842 194.938,140.342 192.5,123.5C 196.801,114.898 199.968,105.898 202,96.5C 215.173,113.437 218.173,132.103 211,152.5C 201.653,172.179 186.82,186.012 166.5,194C 126.867,209.653 88.2002,207.653 50.5,188C 45.071,184.631 40.071,180.798 35.5,176.5 Z"/></g>
</svg>
